<svg width="36" height="32" viewBox="0 0 36 32" fill="none" xmlns="http://www.w3.org/2000/svg">
<path d="M16 -0.00201416V-1.41859e-05C7.17 -1.41859e-05 0 7.16899 0 16C0 24.831 7.17 32.002 16 32.002C18.208 32.002 20.314 31.554 22.229 30.744C22.395 30.674 22.557 30.599 22.719 30.524C24.3726 31.6552 26.3742 32.1623 28.367 31.955C29.4824 31.8422 30.5641 31.5084 31.549 30.973C33.2436 30.0495 34.5766 28.5808 35.332 26.805C35.6607 26.0288 35.8707 25.2076 35.955 24.369V24.367C36.0709 23.2258 35.956 22.0729 35.617 20.977V20.975C35.5349 20.7105 35.4397 20.4502 35.332 20.195V20.193C35.1175 19.6884 34.8546 19.2058 34.547 18.752V18.75C34.3941 18.525 34.2306 18.3074 34.057 18.098V18.096C33.8833 17.8854 33.6998 17.6832 33.507 17.49C33.0501 17.0374 32.5436 16.6379 31.997 16.299C31.998 16.199 32 16.099 32 15.998C32 7.16698 24.83 -0.00201416 16 -0.00201416ZM15.5 1.05099V7.74999H9.125C9.6542 5.74698 10.3112 3.77995 11.092 1.86099C12.5129 1.37323 13.9986 1.10023 15.5 1.05099ZM16.5 1.05099C17.992 1.10099 19.425 1.36899 20.775 1.81799C21.5625 3.75044 22.2239 5.73193 22.755 7.74999H16.5V1.05099ZM22.031 2.30099C24.6736 3.45278 26.926 5.34538 28.516 7.74999H23.787C23.3107 5.89998 22.7243 4.08107 22.031 2.30099ZM9.826 2.36499C9.14452 4.12422 8.56817 5.92238 8.1 7.74999H3.484C5.04473 5.39003 7.24423 3.52243 9.826 2.36499ZM2.943 8.74999H7.852C7.34232 10.9668 7.04399 13.2269 6.961 15.5H1.05C1.132 13.045 1.82 10.768 2.942 8.74999H2.943ZM8.871 8.74999H15.5V15.5H7.947C8.027 13.252 8.341 11.01 8.871 8.74999ZM16.5 8.74999H23.01C23.539 11.01 23.848 13.253 23.928 15.5H16.5V8.74999ZM24.037 8.74999H29.057C30.181 10.77 30.895 13.046 30.982 15.5H30.35C28.6016 14.8708 26.6944 14.8357 24.924 15.4C24.8367 13.1605 24.5397 10.9341 24.037 8.74999ZM27.5 16.002C28.8511 15.9995 30.1776 16.3627 31.3389 17.0532C32.5002 17.7437 33.453 18.7357 34.096 19.924C34.3286 20.3531 34.5188 20.8039 34.664 21.27C34.8115 21.7462 34.911 22.236 34.961 22.732C34.986 22.984 35 23.242 35 23.5V23.502C34.9996 24.0098 34.9487 24.5163 34.848 25.014C34.6032 26.2119 34.0678 27.3314 33.289 28.274C32.5856 29.1281 31.7016 29.8156 30.7006 30.287C29.6995 30.7583 28.6065 31.0019 27.5 31C26.1487 31.0023 24.822 30.6388 23.6607 29.9479C22.4994 29.257 21.5468 28.2646 20.904 27.076C20.4325 26.2069 20.1385 25.2527 20.039 24.269C19.9624 23.5076 20.0005 22.7381 20.152 21.988V21.986C20.202 21.743 20.263 21.504 20.336 21.269V21.267C20.409 21.033 20.493 20.804 20.588 20.58V20.578C20.6827 20.355 20.7881 20.1367 20.904 19.924V19.922C21.019 19.71 21.145 19.504 21.279 19.305V19.303C21.414 19.103 21.559 18.913 21.711 18.728V18.726C22.4143 17.8716 23.2985 17.1841 24.2997 16.713C25.301 16.242 26.3934 15.9991 27.5 16.002ZM1.05 16.5H6.947C6.937 18.734 7.149 20.978 7.613 23.252H2.943C1.78217 21.1847 1.1334 18.8695 1.051 16.5H1.05ZM7.932 16.5H15.5V23.252H8.63C8.15652 21.0328 7.92252 18.7691 7.932 16.5ZM16.5 16.5H22.688C22.0353 16.9487 21.448 17.4858 20.943 18.096V18.098C20.77 18.308 20.606 18.524 20.453 18.75V18.752C20.148 19.204 19.883 19.686 19.668 20.193V20.195C19.5603 20.4502 19.4651 20.7105 19.383 20.975V20.977C19.2996 21.2433 19.2295 21.5137 19.173 21.787V21.789C19.165 21.831 19.163 21.876 19.154 21.919C19.072 22.352 19.025 22.799 19.012 23.252H16.5V16.5ZM27.492 19C27.361 19.007 27.2376 19.0633 27.1463 19.1575C27.0551 19.2517 27.0028 19.3769 27 19.508V20.047C26.035 20.257 25.252 20.96 25.252 21.943C25.252 23.106 26.292 23.998 27.5 23.998C28.23 23.998 28.748 24.492 28.748 25.051C28.748 25.61 28.23 26.105 27.5 26.105C26.77 26.105 26.252 25.61 26.252 25.051C26.2488 24.9187 26.1953 24.7927 26.1024 24.6985C26.0095 24.6043 25.8842 24.549 25.752 24.544C25.6198 24.549 25.4945 24.6043 25.4016 24.6985C25.3087 24.7927 25.2552 24.9187 25.252 25.051C25.252 26.049 26.02 26.842 27 27.049V27.494C27.0032 27.6262 27.0567 27.7523 27.1496 27.8465C27.2425 27.9407 27.3678 27.9959 27.5 28.001C27.6322 27.9959 27.7575 27.9407 27.8504 27.8465C27.9433 27.7523 27.9968 27.6262 28 27.494V26.947C28.965 26.737 29.748 26.035 29.748 25.051C29.748 24.107 29.012 22.987 27.506 22.998H27.5C26.77 22.998 26.252 22.502 26.252 21.943C26.252 21.392 26.758 20.906 27.472 20.893C27.4909 20.8947 27.51 20.8954 27.529 20.895C28.242 20.909 28.748 21.393 28.748 21.943C28.751 22.0754 28.8043 22.2017 28.8973 22.2961C28.9902 22.3905 29.1156 22.4459 29.248 22.451C29.3804 22.4459 29.5058 22.3905 29.5987 22.2961C29.6917 22.2017 29.745 22.0754 29.748 21.943C29.748 20.946 28.98 20.15 28 19.943V19.508C27.9969 19.3742 27.9424 19.2468 27.8478 19.1522C27.7532 19.0575 27.6258 19.003 27.492 19ZM3.484 24.252H7.84C8.26311 26.0346 8.81591 27.7839 9.494 29.486C7.05314 28.3185 4.97569 26.5093 3.484 24.252ZM8.857 24.252H15.5V30.952C13.8897 30.8974 12.2985 30.5851 10.787 30.027C9.98876 28.1573 9.34331 26.226 8.857 24.252ZM16.5 24.252H19.04C19.042 24.29 19.041 24.329 19.045 24.367V24.369C19.074 24.654 19.117 24.935 19.174 25.211V25.213C19.2854 25.7587 19.4509 26.292 19.668 26.805V26.807C19.8824 27.3116 20.1453 27.7942 20.453 28.248V28.25C20.723 28.65 21.034 29.021 21.367 29.37C21.268 29.615 21.17 29.86 21.064 30.106C19.5947 30.6187 18.0555 30.9037 16.5 30.951V24.252Z" fill="#D71921"/>
</svg>
