<svg width="14" height="8" viewBox="0 0 14 8" fill="none" xmlns="http://www.w3.org/2000/svg">
<path d="M0.305001 0.305975C0.109225 0.502086 -0.000732422 0.767869 -0.000732422 1.04498C-0.000732422 1.32208 0.109225 1.58786 0.305001 1.78398L6.209 7.69398C6.437 7.92198 6.745 8.02398 7.043 7.99598C7.313 7.99598 7.582 7.89497 7.787 7.68997L13.694 1.78298C13.791 1.68599 13.8679 1.57086 13.9204 1.44415C13.9729 1.31744 13.9999 1.18163 13.9999 1.04448C13.9999 0.907323 13.9729 0.771514 13.9204 0.644802C13.8679 0.51809 13.791 0.402956 13.694 0.305975C13.597 0.208994 13.4819 0.132064 13.3552 0.0795784C13.2285 0.0270925 13.0927 7.81986e-05 12.9555 7.82013e-05C12.8183 7.8204e-05 12.6825 0.0270925 12.5558 0.0795784C12.4291 0.132064 12.314 0.208994 12.217 0.305975L6.997 5.52598L1.781 0.305975C1.68413 0.208977 1.56909 0.132027 1.44246 0.079525C1.31583 0.027023 1.18009 0 1.043 0C0.905916 0 0.770176 0.027023 0.643544 0.079525C0.516911 0.132027 0.40187 0.208977 0.305001 0.305975Z" fill="#D71921"/>
</svg>
